<svg xmlns="http://www.w3.org/2000/svg" viewBox="0 0 212.34444 295.36224">
  <path fill="none" stroke="#444" stroke-width=".76539582" d="M104.32143 95.494942l11.67353-11.673528m-11.67353 23.967926l23.96793-23.967926" transform="matrix(1 0 0 1.37958 1.8507883 -115.1107411)"/>
  <g fill="none" stroke="#444">
    <path stroke-width=".76499999" d="M104.32143 83.821414V297.53454" transform="matrix(1 0 0 1.37958 1.8507883 -115.11074)"/>
    <path stroke-width=".76539582" d="M210.80769 107.6169l-23.71903-23.795486m23.68583 13.19366l-13.09295-13.19366" transform="matrix(1 0 0 1.37958 1.8507883 -115.1107411)"/>
  </g>
  <g fill="none" stroke="#444">
    <path stroke-width=".76539582" d="M104.32143 95.494942l11.67353-11.673528m-11.67353 23.967926l23.96793-23.967926" transform="matrix(-1 0 0 1.37958 210.4936483 -115.11074868)"/>
    <path stroke-width=".76499999" d="M210.5255 83.82142l-212.4194989-.197505" transform="matrix(-1 0 0 1.37958 210.49365 -115.11075)"/>
    <path stroke-width=".76539582" d="M210.66596 107.31431l-23.5773-23.492896m23.68622 13.147463l-13.09334-13.147463" transform="matrix(-1 0 0 1.37958 210.4936483 -115.11074868)"/>
  </g>
</svg>
