<?xml version="1.0" encoding="UTF-8" standalone="no"?>
<svg
   xmlns:dc="http://purl.org/dc/elements/1.1/"
   xmlns:cc="http://creativecommons.org/ns#"
   xmlns:rdf="http://www.w3.org/1999/02/22-rdf-syntax-ns#"
   xmlns:svg="http://www.w3.org/2000/svg"
   xmlns="http://www.w3.org/2000/svg"
   xmlns:sodipodi="http://sodipodi.sourceforge.net/DTD/sodipodi-0.dtd"
   xmlns:inkscape="http://www.inkscape.org/namespaces/inkscape"
   viewBox="0 0 511.69449 518.63928"
   version="1.1"
   id="svg172"
   sodipodi:docname="silverware_2.svg"
   width="511.69449"
   height="518.63928"
   inkscape:version="0.92.2 5c3e80d, 2017-08-06">
  <metadata
     id="metadata178">
    <rdf:RDF>
      <cc:Work
         rdf:about="">
        <dc:format>image/svg+xml</dc:format>
        <dc:type
           rdf:resource="http://purl.org/dc/dcmitype/StillImage" />
        <dc:title></dc:title>
      </cc:Work>
    </rdf:RDF>
  </metadata>
  <defs
     id="defs176" />
  <sodipodi:namedview
     pagecolor="#ffffff"
     bordercolor="#666666"
     borderopacity="1"
     objecttolerance="10"
     gridtolerance="10"
     guidetolerance="10"
     inkscape:pageopacity="0"
     inkscape:pageshadow="2"
     inkscape:window-width="1250"
     inkscape:window-height="721"
     id="namedview174"
     showgrid="false"
     inkscape:zoom="0.45254834"
     inkscape:cx="274.45782"
     inkscape:cy="52.928487"
     inkscape:window-x="0"
     inkscape:window-y="0"
     inkscape:window-maximized="0"
     inkscape:current-layer="svg172"
     fit-margin-top="0"
     fit-margin-left="0"
     fit-margin-right="0"
     fit-margin-bottom="0" />
  <path
     d="M 498.529,441.96459 297.764,241.19859 63.204,6.6385913 c 0,0 -3.05746,-3.5853413 -6.335579,-5.4823309 C 54.727989,-0.08236973 52.62889,-0.25334003 50.590938,0.30043487 49.068143,0.71422577 47.90587,2.0363451 46.868992,3.2258883 46.003063,4.2193128 44.873,6.6385913 44.873,6.6385913 L 41.13,16.149591 c -9.879,25.104 -14.1,50.78 -12.205,74.249 2.16,26.751999 12.323,49.912999 29.392,66.981999 l 183.11,183.11 24.152,-24.152 169.285,189.293 c 16.84,16.84 45.825,17.84 63.665,0 17.554,-17.554 17.554,-46.114 0,-63.667 z m -341.954,-143.884 -143.411,143.411 c -17.552,17.552 -17.552,46.113 0,63.665 16.674,16.674 45.519,18.146 63.665,0 l 143.412,-143.412 z M 489.89661,92.49776 c -0.51582,0.03868 -1.28167,0.874872 -1.28167,0.874872 l -77.81643,77.815478 c 0,0 -0.55004,0.59497 -0.85744,0.85743 -0.33559,0.28651 -0.63232,0.73223 -1.07123,0.77773 -0.35242,0.0365 -0.67821,-0.23372 -0.96997,-0.43477 -0.34597,-0.23841 -0.89132,-0.89128 -0.89132,-0.89128 L 389.9417,154.43118 c 0,0 -0.91689,-0.79069 -1.27365,-1.27359 -0.25597,-0.34648 -0.61229,-0.71129 -0.60494,-1.142 0.008,-0.48488 0.42973,-0.87654 0.72451,-1.26162 0.39074,-0.51044 1.36365,-1.36365 1.36365,-1.36365 l 77.51187,-77.511866 c 0,0 0.45132,-0.830914 0.4342,-1.28166 -0.017,-0.448878 -0.27659,-0.867605 -0.528,-1.239864 -4.79373,-7.09806 -11.53871,-12.747772 -18.16949,-18.169492 -0.49824,-0.407394 -0.96726,-1.021512 -1.60926,-1.066881 -0.57185,-0.04041 -1.55284,0.739287 -1.55284,0.739287 l -77.11673,77.116726 c 0,0 -1.00079,1.09331 -1.60597,1.51009 -0.3692,0.25426 -0.7618,0.59222 -1.21005,0.58684 -0.55585,-0.007 -1.0336,-0.43581 -1.48262,-0.76353 -0.4746,-0.34639 -1.24642,-1.24642 -1.24642,-1.24642 l -15.82002,-15.82002 c 0,0 -0.4155,-0.55068 -0.52711,-0.87124 -0.19906,-0.5717 -0.22184,-1.19637 -0.22825,-1.8017 -0.006,-0.587 -0.0158,-1.19955 0.18431,-1.75142 0.14566,-0.40172 0.71415,-1.06459 0.71415,-1.06459 l 74.69011,-74.689188 c 0,0 0.82101,-0.923029 1.19424,-1.414401 0.41323,-0.54403 1.09425,-1.013292 1.15385,-1.69386 0.0856,-0.977882 -0.72985,-1.828586 -1.20964,-2.68497 -0.46885,-0.836877 -1.28933,-1.906353 -1.62032,-2.378289 -3.58146,-5.106553 -8.31094,-9.398025 -13.23129,-13.231286 -0.89921,-0.7005373 -1.87005,-1.3494743 -2.93606,-1.7531341 -0.36634,-0.1387191 -0.76417,-0.243665 -1.15498,-0.2169411 -0.38624,0.026412 -0.76181,0.1823681 -1.10167,0.367794 -1.01284,0.5526151 -2.69862,2.1676262 -2.69862,2.1676262 L 299.103,113.10959 c -12.981,12.981 -20.732,30.217 -21.828,48.535 -0.277,4.641 -4.35881,9.09902 -3.074,13.548 9.01532,31.21775 37.71094,59.91477 68.929,68.929 4.4491,1.28468 8.908,-2.798 13.548,-3.075 18.318,-1.093 35.554,-8.846 48.535,-21.827 L 510.58371,113.84987 c 0,0 0.40889,-0.48308 0.40031,-0.77318 -0.009,-0.29222 -0.26907,-0.52291 -0.44858,-0.75366 -5.51919,-7.09467 -11.73823,-13.864607 -19.0678,-19.067795 -0.47406,-0.336532 -0.99129,-0.800946 -1.57103,-0.757475 z"
     id="path170"
     inkscape:connector-curvature="0"
     sodipodi:nodetypes="cccsaacccscccsccssscccccaaaccaaacaaaacccaaaccaaacaaasaaaacsccaaccassac" />
</svg>
